<?xml version="1.0" encoding="utf-8"?>
<!-- Generator: Adobe Illustrator 22.1.0, SVG Export Plug-In . SVG Version: 6.00 Build 0)  -->
<svg version="1.1" xmlns="http://www.w3.org/2000/svg" xmlns:xlink="http://www.w3.org/1999/xlink" x="0px" y="0px"
	 viewBox="0 0 512 512" style="enable-background:new 0 0 512 512;" xml:space="preserve">
<style type="text/css">
	.st0{display:none;}
	.st1{display:inline;fill:#FFFFFF;}
	.st2{display:inline;}
	.st3{font-family:'MaisonNeue-Demi';}
	.st4{font-size:21.4172px;}
</style>
<g id="WHITE_BG" class="st0">
	<rect class="st1" width="512" height="512"/>
</g>
<g id="WHITE_INNER_BG" class="st0">
	<rect x="154.7" y="154" class="st1" width="202.6" height="203"/>
</g>
<g id="BLACK_OUTER_BG">
	<path d="M359.1,52.3H152.9H52.3v100.6v206.3v100.6h100.6h206.3h100.6V359.1V152.9V52.3H359.1z M359.1,359.1H152.9V152.9h206.3
		V359.1z"/>
</g>
<g id="TEXT_BOTTOM" class="st0">
	<text transform="matrix(1 0 0 1 169.9463 340.7168)" class="st2 st3 st4">MARIE ISACSSON</text>
</g>
<g id="TEXT_TOP" class="st0">
</g>
<g id="QR_CODE" class="st0">
	<g id="elements" class="st2">
		<path d="M171.6,255.4h3.4v3.4h-3.4V255.4z M175,255.4h3.4v3.4H175V255.4z M178.4,255.4h3.4v3.4h-3.4V255.4z M181.7,255.4h3.4v3.4
			h-3.4V255.4z M185.1,255.4h3.4v3.4h-3.4V255.4z M188.5,255.4h3.4v3.4h-3.4V255.4z M191.9,255.4h3.4v3.4h-3.4V255.4z M202,255.4
			h3.4v3.4H202V255.4z M215.5,255.4h3.4v3.4h-3.4V255.4z M225.6,255.4h3.4v3.4h-3.4V255.4z M232.4,255.4h3.4v3.4h-3.4V255.4z
			 M235.8,255.4h3.4v3.4h-3.4V255.4z M239.2,255.4h3.4v3.4h-3.4V255.4z M242.5,255.4h3.4v3.4h-3.4V255.4z M245.9,255.4h3.4v3.4h-3.4
			V255.4z M249.3,255.4h3.4v3.4h-3.4V255.4z M252.7,255.4h3.4v3.4h-3.4V255.4z M171.6,258.8h3.4v3.4h-3.4V258.8z M191.9,258.8h3.4
			v3.4h-3.4V258.8z M198.6,258.8h3.4v3.4h-3.4V258.8z M202,258.8h3.4v3.4H202V258.8z M208.8,258.8h3.4v3.4h-3.4V258.8z M212.1,258.8
			h3.4v3.4h-3.4V258.8z M215.5,258.8h3.4v3.4h-3.4V258.8z M218.9,258.8h3.4v3.4h-3.4V258.8z M222.3,258.8h3.4v3.4h-3.4V258.8z
			 M225.6,258.8h3.4v3.4h-3.4V258.8z M232.4,258.8h3.4v3.4h-3.4V258.8z M252.7,258.8h3.4v3.4h-3.4V258.8z M171.6,262.1h3.4v3.4h-3.4
			V262.1z M178.4,262.1h3.4v3.4h-3.4V262.1z M181.7,262.1h3.4v3.4h-3.4V262.1z M185.1,262.1h3.4v3.4h-3.4V262.1z M191.9,262.1h3.4
			v3.4h-3.4V262.1z M202,262.1h3.4v3.4H202V262.1z M205.4,262.1h3.4v3.4h-3.4V262.1z M208.8,262.1h3.4v3.4h-3.4V262.1z M222.3,262.1
			h3.4v3.4h-3.4V262.1z M232.4,262.1h3.4v3.4h-3.4V262.1z M239.2,262.1h3.4v3.4h-3.4V262.1z M242.5,262.1h3.4v3.4h-3.4V262.1z
			 M245.9,262.1h3.4v3.4h-3.4V262.1z M252.7,262.1h3.4v3.4h-3.4V262.1z M171.6,265.5h3.4v3.4h-3.4V265.5z M178.4,265.5h3.4v3.4h-3.4
			V265.5z M181.7,265.5h3.4v3.4h-3.4V265.5z M185.1,265.5h3.4v3.4h-3.4V265.5z M191.9,265.5h3.4v3.4h-3.4V265.5z M198.6,265.5h3.4
			v3.4h-3.4V265.5z M202,265.5h3.4v3.4H202V265.5z M208.8,265.5h3.4v3.4h-3.4V265.5z M215.5,265.5h3.4v3.4h-3.4V265.5z M218.9,265.5
			h3.4v3.4h-3.4V265.5z M222.3,265.5h3.4v3.4h-3.4V265.5z M232.4,265.5h3.4v3.4h-3.4V265.5z M239.2,265.5h3.4v3.4h-3.4V265.5z
			 M242.5,265.5h3.4v3.4h-3.4V265.5z M245.9,265.5h3.4v3.4h-3.4V265.5z M252.7,265.5h3.4v3.4h-3.4V265.5z M171.6,268.9h3.4v3.4h-3.4
			V268.9z M178.4,268.9h3.4v3.4h-3.4V268.9z M181.7,268.9h3.4v3.4h-3.4V268.9z M185.1,268.9h3.4v3.4h-3.4V268.9z M191.9,268.9h3.4
			v3.4h-3.4V268.9z M205.4,268.9h3.4v3.4h-3.4V268.9z M212.1,268.9h3.4v3.4h-3.4V268.9z M218.9,268.9h3.4v3.4h-3.4V268.9z
			 M225.6,268.9h3.4v3.4h-3.4V268.9z M232.4,268.9h3.4v3.4h-3.4V268.9z M239.2,268.9h3.4v3.4h-3.4V268.9z M242.5,268.9h3.4v3.4h-3.4
			V268.9z M245.9,268.9h3.4v3.4h-3.4V268.9z M252.7,268.9h3.4v3.4h-3.4V268.9z M171.6,272.3h3.4v3.4h-3.4V272.3z M191.9,272.3h3.4
			v3.4h-3.4V272.3z M198.6,272.3h3.4v3.4h-3.4V272.3z M205.4,272.3h3.4v3.4h-3.4V272.3z M215.5,272.3h3.4v3.4h-3.4V272.3z
			 M222.3,272.3h3.4v3.4h-3.4V272.3z M232.4,272.3h3.4v3.4h-3.4V272.3z M252.7,272.3h3.4v3.4h-3.4V272.3z M171.6,275.6h3.4v3.4h-3.4
			V275.6z M175,275.6h3.4v3.4H175V275.6z M178.4,275.6h3.4v3.4h-3.4V275.6z M181.7,275.6h3.4v3.4h-3.4V275.6z M185.1,275.6h3.4v3.4
			h-3.4V275.6z M188.5,275.6h3.4v3.4h-3.4V275.6z M191.9,275.6h3.4v3.4h-3.4V275.6z M198.6,275.6h3.4v3.4h-3.4V275.6z M205.4,275.6
			h3.4v3.4h-3.4V275.6z M212.1,275.6h3.4v3.4h-3.4V275.6z M218.9,275.6h3.4v3.4h-3.4V275.6z M225.6,275.6h3.4v3.4h-3.4V275.6z
			 M232.4,275.6h3.4v3.4h-3.4V275.6z M235.8,275.6h3.4v3.4h-3.4V275.6z M239.2,275.6h3.4v3.4h-3.4V275.6z M242.5,275.6h3.4v3.4h-3.4
			V275.6z M245.9,275.6h3.4v3.4h-3.4V275.6z M249.3,275.6h3.4v3.4h-3.4V275.6z M252.7,275.6h3.4v3.4h-3.4V275.6z M212.1,279h3.4v3.4
			h-3.4V279z M218.9,279h3.4v3.4h-3.4V279z M222.3,279h3.4v3.4h-3.4V279z M171.6,282.4h3.4v3.4h-3.4V282.4z M175,282.4h3.4v3.4H175
			V282.4z M178.4,282.4h3.4v3.4h-3.4V282.4z M181.7,282.4h3.4v3.4h-3.4V282.4z M185.1,282.4h3.4v3.4h-3.4V282.4z M191.9,282.4h3.4
			v3.4h-3.4V282.4z M195.2,282.4h3.4v3.4h-3.4V282.4z M198.6,282.4h3.4v3.4h-3.4V282.4z M202,282.4h3.4v3.4H202V282.4z M205.4,282.4
			h3.4v3.4h-3.4V282.4z M212.1,282.4h3.4v3.4h-3.4V282.4z M215.5,282.4h3.4v3.4h-3.4V282.4z M218.9,282.4h3.4v3.4h-3.4V282.4z
			 M229,282.4h3.4v3.4H229V282.4z M235.8,282.4h3.4v3.4h-3.4V282.4z M242.5,282.4h3.4v3.4h-3.4V282.4z M249.3,282.4h3.4v3.4h-3.4
			V282.4z M185.1,285.8h3.4v3.4h-3.4V285.8z M202,285.8h3.4v3.4H202V285.8z M218.9,285.8h3.4v3.4h-3.4V285.8z M225.6,285.8h3.4v3.4
			h-3.4V285.8z M235.8,285.8h3.4v3.4h-3.4V285.8z M249.3,285.8h3.4v3.4h-3.4V285.8z M171.6,289.2h3.4v3.4h-3.4V289.2z M175,289.2
			h3.4v3.4H175V289.2z M181.7,289.2h3.4v3.4h-3.4V289.2z M185.1,289.2h3.4v3.4h-3.4V289.2z M188.5,289.2h3.4v3.4h-3.4V289.2z
			 M191.9,289.2h3.4v3.4h-3.4V289.2z M202,289.2h3.4v3.4H202V289.2z M208.8,289.2h3.4v3.4h-3.4V289.2z M212.1,289.2h3.4v3.4h-3.4
			V289.2z M215.5,289.2h3.4v3.4h-3.4V289.2z M222.3,289.2h3.4v3.4h-3.4V289.2z M225.6,289.2h3.4v3.4h-3.4V289.2z M229,289.2h3.4v3.4
			H229V289.2z M239.2,289.2h3.4v3.4h-3.4V289.2z M242.5,289.2h3.4v3.4h-3.4V289.2z M249.3,289.2h3.4v3.4h-3.4V289.2z M252.7,289.2
			h3.4v3.4h-3.4V289.2z M188.5,292.5h3.4v3.4h-3.4V292.5z M202,292.5h3.4v3.4H202V292.5z M205.4,292.5h3.4v3.4h-3.4V292.5z
			 M208.8,292.5h3.4v3.4h-3.4V292.5z M218.9,292.5h3.4v3.4h-3.4V292.5z M225.6,292.5h3.4v3.4h-3.4V292.5z M229,292.5h3.4v3.4H229
			V292.5z M239.2,292.5h3.4v3.4h-3.4V292.5z M252.7,292.5h3.4v3.4h-3.4V292.5z M175,295.9h3.4v3.4H175V295.9z M181.7,295.9h3.4v3.4
			h-3.4V295.9z M191.9,295.9h3.4v3.4h-3.4V295.9z M198.6,295.9h3.4v3.4h-3.4V295.9z M202,295.9h3.4v3.4H202V295.9z M208.8,295.9h3.4
			v3.4h-3.4V295.9z M212.1,295.9h3.4v3.4h-3.4V295.9z M215.5,295.9h3.4v3.4h-3.4V295.9z M218.9,295.9h3.4v3.4h-3.4V295.9z
			 M229,295.9h3.4v3.4H229V295.9z M232.4,295.9h3.4v3.4h-3.4V295.9z M239.2,295.9h3.4v3.4h-3.4V295.9z M245.9,295.9h3.4v3.4h-3.4
			V295.9z M249.3,295.9h3.4v3.4h-3.4V295.9z M252.7,295.9h3.4v3.4h-3.4V295.9z M171.6,299.3h3.4v3.4h-3.4V299.3z M175,299.3h3.4v3.4
			H175V299.3z M178.4,299.3h3.4v3.4h-3.4V299.3z M185.1,299.3h3.4v3.4h-3.4V299.3z M188.5,299.3h3.4v3.4h-3.4V299.3z M195.2,299.3
			h3.4v3.4h-3.4V299.3z M205.4,299.3h3.4v3.4h-3.4V299.3z M212.1,299.3h3.4v3.4h-3.4V299.3z M215.5,299.3h3.4v3.4h-3.4V299.3z
			 M225.6,299.3h3.4v3.4h-3.4V299.3z M235.8,299.3h3.4v3.4h-3.4V299.3z M242.5,299.3h3.4v3.4h-3.4V299.3z M249.3,299.3h3.4v3.4h-3.4
			V299.3z M171.6,302.7h3.4v3.4h-3.4V302.7z M178.4,302.7h3.4v3.4h-3.4V302.7z M185.1,302.7h3.4v3.4h-3.4V302.7z M191.9,302.7h3.4
			v3.4h-3.4V302.7z M195.2,302.7h3.4v3.4h-3.4V302.7z M198.6,302.7h3.4v3.4h-3.4V302.7z M215.5,302.7h3.4v3.4h-3.4V302.7z
			 M218.9,302.7h3.4v3.4h-3.4V302.7z M222.3,302.7h3.4v3.4h-3.4V302.7z M229,302.7h3.4v3.4H229V302.7z M235.8,302.7h3.4v3.4h-3.4
			V302.7z M239.2,302.7h3.4v3.4h-3.4V302.7z M242.5,302.7h3.4v3.4h-3.4V302.7z M249.3,302.7h3.4v3.4h-3.4V302.7z M252.7,302.7h3.4
			v3.4h-3.4V302.7z M171.6,306h3.4v3.4h-3.4V306z M178.4,306h3.4v3.4h-3.4V306z M188.5,306h3.4v3.4h-3.4V306z M195.2,306h3.4v3.4
			h-3.4V306z M198.6,306h3.4v3.4h-3.4V306z M202,306h3.4v3.4H202V306z M205.4,306h3.4v3.4h-3.4V306z M208.8,306h3.4v3.4h-3.4V306z
			 M218.9,306h3.4v3.4h-3.4V306z M235.8,306h3.4v3.4h-3.4V306z M239.2,306h3.4v3.4h-3.4V306z M252.7,306h3.4v3.4h-3.4V306z
			 M171.6,309.4h3.4v3.4h-3.4V309.4z M185.1,309.4h3.4v3.4h-3.4V309.4z M188.5,309.4h3.4v3.4h-3.4V309.4z M191.9,309.4h3.4v3.4h-3.4
			V309.4z M202,309.4h3.4v3.4H202V309.4z M208.8,309.4h3.4v3.4h-3.4V309.4z M212.1,309.4h3.4v3.4h-3.4V309.4z M215.5,309.4h3.4v3.4
			h-3.4V309.4z M218.9,309.4h3.4v3.4h-3.4V309.4z M225.6,309.4h3.4v3.4h-3.4V309.4z M229,309.4h3.4v3.4H229V309.4z M232.4,309.4h3.4
			v3.4h-3.4V309.4z M235.8,309.4h3.4v3.4h-3.4V309.4z M239.2,309.4h3.4v3.4h-3.4V309.4z M245.9,309.4h3.4v3.4h-3.4V309.4z
			 M198.6,312.8h3.4v3.4h-3.4V312.8z M205.4,312.8h3.4v3.4h-3.4V312.8z M208.8,312.8h3.4v3.4h-3.4V312.8z M212.1,312.8h3.4v3.4h-3.4
			V312.8z M215.5,312.8h3.4v3.4h-3.4V312.8z M222.3,312.8h3.4v3.4h-3.4V312.8z M225.6,312.8h3.4v3.4h-3.4V312.8z M239.2,312.8h3.4
			v3.4h-3.4V312.8z M242.5,312.8h3.4v3.4h-3.4V312.8z M171.6,316.2h3.4v3.4h-3.4V316.2z M175,316.2h3.4v3.4H175V316.2z M178.4,316.2
			h3.4v3.4h-3.4V316.2z M181.7,316.2h3.4v3.4h-3.4V316.2z M185.1,316.2h3.4v3.4h-3.4V316.2z M188.5,316.2h3.4v3.4h-3.4V316.2z
			 M191.9,316.2h3.4v3.4h-3.4V316.2z M198.6,316.2h3.4v3.4h-3.4V316.2z M215.5,316.2h3.4v3.4h-3.4V316.2z M218.9,316.2h3.4v3.4h-3.4
			V316.2z M225.6,316.2h3.4v3.4h-3.4V316.2z M232.4,316.2h3.4v3.4h-3.4V316.2z M239.2,316.2h3.4v3.4h-3.4V316.2z M245.9,316.2h3.4
			v3.4h-3.4V316.2z M249.3,316.2h3.4v3.4h-3.4V316.2z M252.7,316.2h3.4v3.4h-3.4V316.2z M171.6,319.6h3.4v3.4h-3.4V319.6z
			 M191.9,319.6h3.4v3.4h-3.4V319.6z M205.4,319.6h3.4v3.4h-3.4V319.6z M225.6,319.6h3.4v3.4h-3.4V319.6z M239.2,319.6h3.4v3.4h-3.4
			V319.6z M242.5,319.6h3.4v3.4h-3.4V319.6z M171.6,322.9h3.4v3.4h-3.4V322.9z M178.4,322.9h3.4v3.4h-3.4V322.9z M181.7,322.9h3.4
			v3.4h-3.4V322.9z M185.1,322.9h3.4v3.4h-3.4V322.9z M191.9,322.9h3.4v3.4h-3.4V322.9z M198.6,322.9h3.4v3.4h-3.4V322.9z
			 M202,322.9h3.4v3.4H202V322.9z M212.1,322.9h3.4v3.4h-3.4V322.9z M215.5,322.9h3.4v3.4h-3.4V322.9z M222.3,322.9h3.4v3.4h-3.4
			V322.9z M225.6,322.9h3.4v3.4h-3.4V322.9z M229,322.9h3.4v3.4H229V322.9z M232.4,322.9h3.4v3.4h-3.4V322.9z M235.8,322.9h3.4v3.4
			h-3.4V322.9z M239.2,322.9h3.4v3.4h-3.4V322.9z M245.9,322.9h3.4v3.4h-3.4V322.9z M171.6,326.3h3.4v3.4h-3.4V326.3z M178.4,326.3
			h3.4v3.4h-3.4V326.3z M181.7,326.3h3.4v3.4h-3.4V326.3z M185.1,326.3h3.4v3.4h-3.4V326.3z M191.9,326.3h3.4v3.4h-3.4V326.3z
			 M198.6,326.3h3.4v3.4h-3.4V326.3z M202,326.3h3.4v3.4H202V326.3z M208.8,326.3h3.4v3.4h-3.4V326.3z M215.5,326.3h3.4v3.4h-3.4
			V326.3z M225.6,326.3h3.4v3.4h-3.4V326.3z M229,326.3h3.4v3.4H229V326.3z M232.4,326.3h3.4v3.4h-3.4V326.3z M239.2,326.3h3.4v3.4
			h-3.4V326.3z M242.5,326.3h3.4v3.4h-3.4V326.3z M245.9,326.3h3.4v3.4h-3.4V326.3z M249.3,326.3h3.4v3.4h-3.4V326.3z M252.7,326.3
			h3.4v3.4h-3.4V326.3z M171.6,329.7h3.4v3.4h-3.4V329.7z M178.4,329.7h3.4v3.4h-3.4V329.7z M181.7,329.7h3.4v3.4h-3.4V329.7z
			 M185.1,329.7h3.4v3.4h-3.4V329.7z M191.9,329.7h3.4v3.4h-3.4V329.7z M198.6,329.7h3.4v3.4h-3.4V329.7z M202,329.7h3.4v3.4H202
			V329.7z M215.5,329.7h3.4v3.4h-3.4V329.7z M218.9,329.7h3.4v3.4h-3.4V329.7z M222.3,329.7h3.4v3.4h-3.4V329.7z M242.5,329.7h3.4
			v3.4h-3.4V329.7z M245.9,329.7h3.4v3.4h-3.4V329.7z M252.7,329.7h3.4v3.4h-3.4V329.7z M171.6,333.1h3.4v3.4h-3.4V333.1z
			 M191.9,333.1h3.4v3.4h-3.4V333.1z M198.6,333.1h3.4v3.4h-3.4V333.1z M205.4,333.1h3.4v3.4h-3.4V333.1z M208.8,333.1h3.4v3.4h-3.4
			V333.1z M212.1,333.1h3.4v3.4h-3.4V333.1z M225.6,333.1h3.4v3.4h-3.4V333.1z M232.4,333.1h3.4v3.4h-3.4V333.1z M235.8,333.1h3.4
			v3.4h-3.4V333.1z M239.2,333.1h3.4v3.4h-3.4V333.1z M242.5,333.1h3.4v3.4h-3.4V333.1z M252.7,333.1h3.4v3.4h-3.4V333.1z
			 M171.6,336.4h3.4v3.4h-3.4V336.4z M175,336.4h3.4v3.4H175V336.4z M178.4,336.4h3.4v3.4h-3.4V336.4z M181.7,336.4h3.4v3.4h-3.4
			V336.4z M185.1,336.4h3.4v3.4h-3.4V336.4z M188.5,336.4h3.4v3.4h-3.4V336.4z M191.9,336.4h3.4v3.4h-3.4V336.4z M198.6,336.4h3.4
			v3.4h-3.4V336.4z M202,336.4h3.4v3.4H202V336.4z M215.5,336.4h3.4v3.4h-3.4V336.4z M218.9,336.4h3.4v3.4h-3.4V336.4z M229,336.4
			h3.4v3.4H229V336.4z M232.4,336.4h3.4v3.4h-3.4V336.4z M235.8,336.4h3.4v3.4h-3.4V336.4z M239.2,336.4h3.4v3.4h-3.4V336.4z
			 M242.5,336.4h3.4v3.4h-3.4V336.4z M245.9,336.4h3.4v3.4h-3.4V336.4z M249.3,336.4h3.4v3.4h-3.4V336.4z M252.7,336.4h3.4v3.4h-3.4
			V336.4z"/>
	</g>
</g>
<g id="QR_CODE_VD">
	<g id="elements_1_">
		<path d="M171.6,255.4h3.4v3.4h-3.4V255.4z M175,255.4h3.4v3.4H175V255.4z M178.4,255.4h3.4v3.4h-3.4V255.4z M181.7,255.4h3.4v3.4
			h-3.4V255.4z M185.1,255.4h3.4v3.4h-3.4V255.4z M188.5,255.4h3.4v3.4h-3.4V255.4z M191.9,255.4h3.4v3.4h-3.4V255.4z M202,255.4
			h3.4v3.4H202V255.4z M205.4,255.4h3.4v3.4h-3.4V255.4z M208.8,255.4h3.4v3.4h-3.4V255.4z M225.6,255.4h3.4v3.4h-3.4V255.4z
			 M232.4,255.4h3.4v3.4h-3.4V255.4z M235.8,255.4h3.4v3.4h-3.4V255.4z M239.2,255.4h3.4v3.4h-3.4V255.4z M242.5,255.4h3.4v3.4h-3.4
			V255.4z M245.9,255.4h3.4v3.4h-3.4V255.4z M249.3,255.4h3.4v3.4h-3.4V255.4z M252.7,255.4h3.4v3.4h-3.4V255.4z M171.6,258.8h3.4
			v3.4h-3.4V258.8z M191.9,258.8h3.4v3.4h-3.4V258.8z M198.6,258.8h3.4v3.4h-3.4V258.8z M215.5,258.8h3.4v3.4h-3.4V258.8z
			 M222.3,258.8h3.4v3.4h-3.4V258.8z M232.4,258.8h3.4v3.4h-3.4V258.8z M252.7,258.8h3.4v3.4h-3.4V258.8z M171.6,262.1h3.4v3.4h-3.4
			V262.1z M178.4,262.1h3.4v3.4h-3.4V262.1z M181.7,262.1h3.4v3.4h-3.4V262.1z M185.1,262.1h3.4v3.4h-3.4V262.1z M191.9,262.1h3.4
			v3.4h-3.4V262.1z M202,262.1h3.4v3.4H202V262.1z M212.1,262.1h3.4v3.4h-3.4V262.1z M218.9,262.1h3.4v3.4h-3.4V262.1z M225.6,262.1
			h3.4v3.4h-3.4V262.1z M232.4,262.1h3.4v3.4h-3.4V262.1z M239.2,262.1h3.4v3.4h-3.4V262.1z M242.5,262.1h3.4v3.4h-3.4V262.1z
			 M245.9,262.1h3.4v3.4h-3.4V262.1z M252.7,262.1h3.4v3.4h-3.4V262.1z M171.6,265.5h3.4v3.4h-3.4V265.5z M178.4,265.5h3.4v3.4h-3.4
			V265.5z M181.7,265.5h3.4v3.4h-3.4V265.5z M185.1,265.5h3.4v3.4h-3.4V265.5z M191.9,265.5h3.4v3.4h-3.4V265.5z M198.6,265.5h3.4
			v3.4h-3.4V265.5z M212.1,265.5h3.4v3.4h-3.4V265.5z M215.5,265.5h3.4v3.4h-3.4V265.5z M218.9,265.5h3.4v3.4h-3.4V265.5z
			 M232.4,265.5h3.4v3.4h-3.4V265.5z M239.2,265.5h3.4v3.4h-3.4V265.5z M242.5,265.5h3.4v3.4h-3.4V265.5z M245.9,265.5h3.4v3.4h-3.4
			V265.5z M252.7,265.5h3.4v3.4h-3.4V265.5z M171.6,268.9h3.4v3.4h-3.4V268.9z M178.4,268.9h3.4v3.4h-3.4V268.9z M181.7,268.9h3.4
			v3.4h-3.4V268.9z M185.1,268.9h3.4v3.4h-3.4V268.9z M191.9,268.9h3.4v3.4h-3.4V268.9z M208.8,268.9h3.4v3.4h-3.4V268.9z
			 M225.6,268.9h3.4v3.4h-3.4V268.9z M232.4,268.9h3.4v3.4h-3.4V268.9z M239.2,268.9h3.4v3.4h-3.4V268.9z M242.5,268.9h3.4v3.4h-3.4
			V268.9z M245.9,268.9h3.4v3.4h-3.4V268.9z M252.7,268.9h3.4v3.4h-3.4V268.9z M171.6,272.3h3.4v3.4h-3.4V272.3z M191.9,272.3h3.4
			v3.4h-3.4V272.3z M198.6,272.3h3.4v3.4h-3.4V272.3z M205.4,272.3h3.4v3.4h-3.4V272.3z M218.9,272.3h3.4v3.4h-3.4V272.3z
			 M222.3,272.3h3.4v3.4h-3.4V272.3z M225.6,272.3h3.4v3.4h-3.4V272.3z M232.4,272.3h3.4v3.4h-3.4V272.3z M252.7,272.3h3.4v3.4h-3.4
			V272.3z M171.6,275.6h3.4v3.4h-3.4V275.6z M175,275.6h3.4v3.4H175V275.6z M178.4,275.6h3.4v3.4h-3.4V275.6z M181.7,275.6h3.4v3.4
			h-3.4V275.6z M185.1,275.6h3.4v3.4h-3.4V275.6z M188.5,275.6h3.4v3.4h-3.4V275.6z M191.9,275.6h3.4v3.4h-3.4V275.6z M198.6,275.6
			h3.4v3.4h-3.4V275.6z M205.4,275.6h3.4v3.4h-3.4V275.6z M212.1,275.6h3.4v3.4h-3.4V275.6z M218.9,275.6h3.4v3.4h-3.4V275.6z
			 M225.6,275.6h3.4v3.4h-3.4V275.6z M232.4,275.6h3.4v3.4h-3.4V275.6z M235.8,275.6h3.4v3.4h-3.4V275.6z M239.2,275.6h3.4v3.4h-3.4
			V275.6z M242.5,275.6h3.4v3.4h-3.4V275.6z M245.9,275.6h3.4v3.4h-3.4V275.6z M249.3,275.6h3.4v3.4h-3.4V275.6z M252.7,275.6h3.4
			v3.4h-3.4V275.6z M202,279h3.4v3.4H202V279z M205.4,279h3.4v3.4h-3.4V279z M208.8,279h3.4v3.4h-3.4V279z M218.9,279h3.4v3.4h-3.4
			V279z M222.3,279h3.4v3.4h-3.4V279z M171.6,282.4h3.4v3.4h-3.4V282.4z M175,282.4h3.4v3.4H175V282.4z M178.4,282.4h3.4v3.4h-3.4
			V282.4z M181.7,282.4h3.4v3.4h-3.4V282.4z M185.1,282.4h3.4v3.4h-3.4V282.4z M191.9,282.4h3.4v3.4h-3.4V282.4z M195.2,282.4h3.4
			v3.4h-3.4V282.4z M198.6,282.4h3.4v3.4h-3.4V282.4z M202,282.4h3.4v3.4H202V282.4z M208.8,282.4h3.4v3.4h-3.4V282.4z M212.1,282.4
			h3.4v3.4h-3.4V282.4z M215.5,282.4h3.4v3.4h-3.4V282.4z M218.9,282.4h3.4v3.4h-3.4V282.4z M222.3,282.4h3.4v3.4h-3.4V282.4z
			 M229,282.4h3.4v3.4H229V282.4z M235.8,282.4h3.4v3.4h-3.4V282.4z M242.5,282.4h3.4v3.4h-3.4V282.4z M249.3,282.4h3.4v3.4h-3.4
			V282.4z M175,285.8h3.4v3.4H175V285.8z M178.4,285.8h3.4v3.4h-3.4V285.8z M181.7,285.8h3.4v3.4h-3.4V285.8z M185.1,285.8h3.4v3.4
			h-3.4V285.8z M195.2,285.8h3.4v3.4h-3.4V285.8z M208.8,285.8h3.4v3.4h-3.4V285.8z M212.1,285.8h3.4v3.4h-3.4V285.8z M218.9,285.8
			h3.4v3.4h-3.4V285.8z M225.6,285.8h3.4v3.4h-3.4V285.8z M229,285.8h3.4v3.4H229V285.8z M235.8,285.8h3.4v3.4h-3.4V285.8z
			 M249.3,285.8h3.4v3.4h-3.4V285.8z M175,289.2h3.4v3.4H175V289.2z M181.7,289.2h3.4v3.4h-3.4V289.2z M188.5,289.2h3.4v3.4h-3.4
			V289.2z M191.9,289.2h3.4v3.4h-3.4V289.2z M195.2,289.2h3.4v3.4h-3.4V289.2z M205.4,289.2h3.4v3.4h-3.4V289.2z M215.5,289.2h3.4
			v3.4h-3.4V289.2z M222.3,289.2h3.4v3.4h-3.4V289.2z M232.4,289.2h3.4v3.4h-3.4V289.2z M235.8,289.2h3.4v3.4h-3.4V289.2z
			 M242.5,289.2h3.4v3.4h-3.4V289.2z M249.3,289.2h3.4v3.4h-3.4V289.2z M252.7,289.2h3.4v3.4h-3.4V289.2z M175,292.5h3.4v3.4H175
			V292.5z M178.4,292.5h3.4v3.4h-3.4V292.5z M181.7,292.5h3.4v3.4h-3.4V292.5z M195.2,292.5h3.4v3.4h-3.4V292.5z M198.6,292.5h3.4
			v3.4h-3.4V292.5z M222.3,292.5h3.4v3.4h-3.4V292.5z M225.6,292.5h3.4v3.4h-3.4V292.5z M239.2,292.5h3.4v3.4h-3.4V292.5z
			 M252.7,292.5h3.4v3.4h-3.4V292.5z M181.7,295.9h3.4v3.4h-3.4V295.9z M188.5,295.9h3.4v3.4h-3.4V295.9z M191.9,295.9h3.4v3.4h-3.4
			V295.9z M195.2,295.9h3.4v3.4h-3.4V295.9z M198.6,295.9h3.4v3.4h-3.4V295.9z M202,295.9h3.4v3.4H202V295.9z M205.4,295.9h3.4v3.4
			h-3.4V295.9z M212.1,295.9h3.4v3.4h-3.4V295.9z M215.5,295.9h3.4v3.4h-3.4V295.9z M222.3,295.9h3.4v3.4h-3.4V295.9z M229,295.9
			h3.4v3.4H229V295.9z M232.4,295.9h3.4v3.4h-3.4V295.9z M239.2,295.9h3.4v3.4h-3.4V295.9z M245.9,295.9h3.4v3.4h-3.4V295.9z
			 M249.3,295.9h3.4v3.4h-3.4V295.9z M252.7,295.9h3.4v3.4h-3.4V295.9z M171.6,299.3h3.4v3.4h-3.4V299.3z M175,299.3h3.4v3.4H175
			V299.3z M178.4,299.3h3.4v3.4h-3.4V299.3z M185.1,299.3h3.4v3.4h-3.4V299.3z M202,299.3h3.4v3.4H202V299.3z M208.8,299.3h3.4v3.4
			h-3.4V299.3z M215.5,299.3h3.4v3.4h-3.4V299.3z M225.6,299.3h3.4v3.4h-3.4V299.3z M229,299.3h3.4v3.4H229V299.3z M235.8,299.3h3.4
			v3.4h-3.4V299.3z M242.5,299.3h3.4v3.4h-3.4V299.3z M249.3,299.3h3.4v3.4h-3.4V299.3z M171.6,302.7h3.4v3.4h-3.4V302.7z
			 M178.4,302.7h3.4v3.4h-3.4V302.7z M185.1,302.7h3.4v3.4h-3.4V302.7z M188.5,302.7h3.4v3.4h-3.4V302.7z M191.9,302.7h3.4v3.4h-3.4
			V302.7z M195.2,302.7h3.4v3.4h-3.4V302.7z M202,302.7h3.4v3.4H202V302.7z M205.4,302.7h3.4v3.4h-3.4V302.7z M212.1,302.7h3.4v3.4
			h-3.4V302.7z M215.5,302.7h3.4v3.4h-3.4V302.7z M218.9,302.7h3.4v3.4h-3.4V302.7z M222.3,302.7h3.4v3.4h-3.4V302.7z M229,302.7
			h3.4v3.4H229V302.7z M232.4,302.7h3.4v3.4h-3.4V302.7z M239.2,302.7h3.4v3.4h-3.4V302.7z M242.5,302.7h3.4v3.4h-3.4V302.7z
			 M249.3,302.7h3.4v3.4h-3.4V302.7z M252.7,302.7h3.4v3.4h-3.4V302.7z M171.6,306h3.4v3.4h-3.4V306z M185.1,306h3.4v3.4h-3.4V306z
			 M202,306h3.4v3.4H202V306z M208.8,306h3.4v3.4h-3.4V306z M222.3,306h3.4v3.4h-3.4V306z M225.6,306h3.4v3.4h-3.4V306z M232.4,306
			h3.4v3.4h-3.4V306z M235.8,306h3.4v3.4h-3.4V306z M242.5,306h3.4v3.4h-3.4V306z M252.7,306h3.4v3.4h-3.4V306z M171.6,309.4h3.4
			v3.4h-3.4V309.4z M188.5,309.4h3.4v3.4h-3.4V309.4z M191.9,309.4h3.4v3.4h-3.4V309.4z M195.2,309.4h3.4v3.4h-3.4V309.4z
			 M202,309.4h3.4v3.4H202V309.4z M208.8,309.4h3.4v3.4h-3.4V309.4z M212.1,309.4h3.4v3.4h-3.4V309.4z M215.5,309.4h3.4v3.4h-3.4
			V309.4z M218.9,309.4h3.4v3.4h-3.4V309.4z M225.6,309.4h3.4v3.4h-3.4V309.4z M229,309.4h3.4v3.4H229V309.4z M232.4,309.4h3.4v3.4
			h-3.4V309.4z M235.8,309.4h3.4v3.4h-3.4V309.4z M239.2,309.4h3.4v3.4h-3.4V309.4z M245.9,309.4h3.4v3.4h-3.4V309.4z M198.6,312.8
			h3.4v3.4h-3.4V312.8z M202,312.8h3.4v3.4H202V312.8z M205.4,312.8h3.4v3.4h-3.4V312.8z M208.8,312.8h3.4v3.4h-3.4V312.8z
			 M215.5,312.8h3.4v3.4h-3.4V312.8z M222.3,312.8h3.4v3.4h-3.4V312.8z M225.6,312.8h3.4v3.4h-3.4V312.8z M239.2,312.8h3.4v3.4h-3.4
			V312.8z M242.5,312.8h3.4v3.4h-3.4V312.8z M245.9,312.8h3.4v3.4h-3.4V312.8z M171.6,316.2h3.4v3.4h-3.4V316.2z M175,316.2h3.4v3.4
			H175V316.2z M178.4,316.2h3.4v3.4h-3.4V316.2z M181.7,316.2h3.4v3.4h-3.4V316.2z M185.1,316.2h3.4v3.4h-3.4V316.2z M188.5,316.2
			h3.4v3.4h-3.4V316.2z M191.9,316.2h3.4v3.4h-3.4V316.2z M198.6,316.2h3.4v3.4h-3.4V316.2z M205.4,316.2h3.4v3.4h-3.4V316.2z
			 M215.5,316.2h3.4v3.4h-3.4V316.2z M218.9,316.2h3.4v3.4h-3.4V316.2z M225.6,316.2h3.4v3.4h-3.4V316.2z M232.4,316.2h3.4v3.4h-3.4
			V316.2z M239.2,316.2h3.4v3.4h-3.4V316.2z M242.5,316.2h3.4v3.4h-3.4V316.2z M245.9,316.2h3.4v3.4h-3.4V316.2z M249.3,316.2h3.4
			v3.4h-3.4V316.2z M252.7,316.2h3.4v3.4h-3.4V316.2z M171.6,319.6h3.4v3.4h-3.4V319.6z M191.9,319.6h3.4v3.4h-3.4V319.6z
			 M205.4,319.6h3.4v3.4h-3.4V319.6z M212.1,319.6h3.4v3.4h-3.4V319.6z M218.9,319.6h3.4v3.4h-3.4V319.6z M225.6,319.6h3.4v3.4h-3.4
			V319.6z M239.2,319.6h3.4v3.4h-3.4V319.6z M242.5,319.6h3.4v3.4h-3.4V319.6z M249.3,319.6h3.4v3.4h-3.4V319.6z M171.6,322.9h3.4
			v3.4h-3.4V322.9z M178.4,322.9h3.4v3.4h-3.4V322.9z M181.7,322.9h3.4v3.4h-3.4V322.9z M185.1,322.9h3.4v3.4h-3.4V322.9z
			 M191.9,322.9h3.4v3.4h-3.4V322.9z M198.6,322.9h3.4v3.4h-3.4V322.9z M205.4,322.9h3.4v3.4h-3.4V322.9z M208.8,322.9h3.4v3.4h-3.4
			V322.9z M212.1,322.9h3.4v3.4h-3.4V322.9z M215.5,322.9h3.4v3.4h-3.4V322.9z M218.9,322.9h3.4v3.4h-3.4V322.9z M222.3,322.9h3.4
			v3.4h-3.4V322.9z M225.6,322.9h3.4v3.4h-3.4V322.9z M229,322.9h3.4v3.4H229V322.9z M232.4,322.9h3.4v3.4h-3.4V322.9z M235.8,322.9
			h3.4v3.4h-3.4V322.9z M239.2,322.9h3.4v3.4h-3.4V322.9z M242.5,322.9h3.4v3.4h-3.4V322.9z M245.9,322.9h3.4v3.4h-3.4V322.9z
			 M249.3,322.9h3.4v3.4h-3.4V322.9z M171.6,326.3h3.4v3.4h-3.4V326.3z M178.4,326.3h3.4v3.4h-3.4V326.3z M181.7,326.3h3.4v3.4h-3.4
			V326.3z M185.1,326.3h3.4v3.4h-3.4V326.3z M191.9,326.3h3.4v3.4h-3.4V326.3z M198.6,326.3h3.4v3.4h-3.4V326.3z M202,326.3h3.4v3.4
			H202V326.3z M208.8,326.3h3.4v3.4h-3.4V326.3z M215.5,326.3h3.4v3.4h-3.4V326.3z M229,326.3h3.4v3.4H229V326.3z M232.4,326.3h3.4
			v3.4h-3.4V326.3z M235.8,326.3h3.4v3.4h-3.4V326.3z M239.2,326.3h3.4v3.4h-3.4V326.3z M245.9,326.3h3.4v3.4h-3.4V326.3z
			 M249.3,326.3h3.4v3.4h-3.4V326.3z M252.7,326.3h3.4v3.4h-3.4V326.3z M171.6,329.7h3.4v3.4h-3.4V329.7z M178.4,329.7h3.4v3.4h-3.4
			V329.7z M181.7,329.7h3.4v3.4h-3.4V329.7z M185.1,329.7h3.4v3.4h-3.4V329.7z M191.9,329.7h3.4v3.4h-3.4V329.7z M198.6,329.7h3.4
			v3.4h-3.4V329.7z M202,329.7h3.4v3.4H202V329.7z M205.4,329.7h3.4v3.4h-3.4V329.7z M212.1,329.7h3.4v3.4h-3.4V329.7z M215.5,329.7
			h3.4v3.4h-3.4V329.7z M218.9,329.7h3.4v3.4h-3.4V329.7z M222.3,329.7h3.4v3.4h-3.4V329.7z M229,329.7h3.4v3.4H229V329.7z
			 M235.8,329.7h3.4v3.4h-3.4V329.7z M245.9,329.7h3.4v3.4h-3.4V329.7z M252.7,329.7h3.4v3.4h-3.4V329.7z M171.6,333.1h3.4v3.4h-3.4
			V333.1z M191.9,333.1h3.4v3.4h-3.4V333.1z M198.6,333.1h3.4v3.4h-3.4V333.1z M222.3,333.1h3.4v3.4h-3.4V333.1z M225.6,333.1h3.4
			v3.4h-3.4V333.1z M229,333.1h3.4v3.4H229V333.1z M232.4,333.1h3.4v3.4h-3.4V333.1z M235.8,333.1h3.4v3.4h-3.4V333.1z M239.2,333.1
			h3.4v3.4h-3.4V333.1z M242.5,333.1h3.4v3.4h-3.4V333.1z M252.7,333.1h3.4v3.4h-3.4V333.1z M171.6,336.4h3.4v3.4h-3.4V336.4z
			 M175,336.4h3.4v3.4H175V336.4z M178.4,336.4h3.4v3.4h-3.4V336.4z M181.7,336.4h3.4v3.4h-3.4V336.4z M185.1,336.4h3.4v3.4h-3.4
			V336.4z M188.5,336.4h3.4v3.4h-3.4V336.4z M191.9,336.4h3.4v3.4h-3.4V336.4z M198.6,336.4h3.4v3.4h-3.4V336.4z M202,336.4h3.4v3.4
			H202V336.4z M208.8,336.4h3.4v3.4h-3.4V336.4z M212.1,336.4h3.4v3.4h-3.4V336.4z M215.5,336.4h3.4v3.4h-3.4V336.4z M218.9,336.4
			h3.4v3.4h-3.4V336.4z M229,336.4h3.4v3.4H229V336.4z M232.4,336.4h3.4v3.4h-3.4V336.4z M235.8,336.4h3.4v3.4h-3.4V336.4z
			 M239.2,336.4h3.4v3.4h-3.4V336.4z M242.5,336.4h3.4v3.4h-3.4V336.4z M245.9,336.4h3.4v3.4h-3.4V336.4z M249.3,336.4h3.4v3.4h-3.4
			V336.4z M252.7,336.4h3.4v3.4h-3.4V336.4z"/>
	</g>
</g>
<g id="PATTERN_SIMPLE_1_" class="st0">
	<rect x="170.7" y="113.8" class="st2" width="56.9" height="56.9"/>
	<rect x="284.4" y="113.8" class="st2" width="56.9" height="56.9"/>
	<rect x="113.8" y="170.7" class="st2" width="56.9" height="56.9"/>
	<rect x="227.6" y="170.7" class="st2" width="56.9" height="56.9"/>
	<rect x="341.3" y="170.7" class="st2" width="56.9" height="56.9"/>
	<rect x="113.8" y="227.6" class="st2" width="56.9" height="56.9"/>
	<rect x="170.7" y="227.6" class="st2" width="56.9" height="56.9"/>
	<rect x="284.4" y="227.6" class="st2" width="56.9" height="56.9"/>
	<rect x="113.8" y="284.4" class="st2" width="56.9" height="56.9"/>
	<rect x="170.7" y="284.4" class="st2" width="56.9" height="56.9"/>
	<rect x="227.6" y="284.4" class="st2" width="56.9" height="56.9"/>
	<rect x="341.3" y="284.4" class="st2" width="56.9" height="56.9"/>
	<rect x="113.8" y="341.3" class="st2" width="56.9" height="56.9"/>
	<rect x="170.7" y="341.3" class="st2" width="56.9" height="56.9"/>
	<rect x="227.6" y="341.3" class="st2" width="56.9" height="56.9"/>
	<rect x="284.4" y="341.3" class="st2" width="56.9" height="56.9"/>
</g>
<g id="PATTERN_SIMPLE_OUTER" class="st0">
	<path class="st2" d="M398.2,56.9h-56.9h-56.9h-56.9h-56.9h-56.9H56.9v56.9v56.9v56.9v56.9v56.9v56.9v56.9h56.9h56.9h56.9h56.9h56.9
		h56.9h56.9v-56.9v-56.9v-56.9v-56.9v-56.9v-56.9V56.9H398.2z M398.2,170.7v56.9v56.9v56.9v56.9h-56.9h-56.9h-56.9h-56.9h-56.9
		v-56.9v-56.9v-56.9v-56.9v-56.9h56.9h56.9h56.9h56.9h56.9V170.7z"/>
</g>
<g id="PATTERN_ADVANCED" class="st0">
	<g class="st2">
		<rect x="222.2" y="171" transform="matrix(-1 -1.224647e-16 1.224647e-16 -1 461.3572 358.9457)" width="16.9" height="16.9"/>
		<rect x="256" y="171" transform="matrix(-1 -1.224647e-16 1.224647e-16 -1 528.8808 358.9457)" width="16.9" height="16.9"/>
		<rect x="323.5" y="171" transform="matrix(-1 -1.224647e-16 1.224647e-16 -1 663.928 358.9457)" width="16.9" height="16.9"/>
		<rect x="289.8" y="171" transform="matrix(-1 -1.224647e-16 1.224647e-16 -1 596.4044 358.9457)" width="16.9" height="16.9"/>
		<rect x="239.1" y="187.9" transform="matrix(-1 -1.224647e-16 1.224647e-16 -1 495.119 392.776)" width="16.9" height="16.9"/>
		<rect x="272.9" y="187.9" transform="matrix(-1 -1.224647e-16 1.224647e-16 -1 562.6426 392.776)" width="16.9" height="16.9"/>
		<rect x="306.6" y="187.9" transform="matrix(-1 -1.224647e-16 1.224647e-16 -1 630.1662 392.776)" width="16.9" height="16.9"/>
		<rect x="256" y="204.8" transform="matrix(-1 -1.224647e-16 1.224647e-16 -1 528.8808 426.6064)" width="16.9" height="16.9"/>
		<rect x="323.5" y="204.8" transform="matrix(-1 -1.224647e-16 1.224647e-16 -1 663.928 426.6064)" width="16.9" height="16.9"/>
		<rect x="289.8" y="204.8" transform="matrix(-1 -1.224647e-16 1.224647e-16 -1 596.4044 426.6064)" width="16.9" height="16.9"/>
		<rect x="272.9" y="221.8" transform="matrix(-1 -1.224647e-16 1.224647e-16 -1 562.6426 460.4368)" width="16.9" height="16.9"/>
		<rect x="306.6" y="221.8" transform="matrix(-1 -1.224647e-16 1.224647e-16 -1 630.1662 460.4368)" width="16.9" height="16.9"/>
		<rect x="323.5" y="238.7" transform="matrix(-1 -1.224647e-16 1.224647e-16 -1 663.928 494.2672)" width="16.9" height="16.9"/>
		<rect x="289.8" y="238.7" transform="matrix(-1 -1.224647e-16 1.224647e-16 -1 596.4044 494.2672)" width="16.9" height="16.9"/>
		<rect x="306.6" y="255.6" transform="matrix(-1 -1.224647e-16 1.224647e-16 -1 630.1662 528.0975)" width="16.9" height="16.9"/>
		<rect x="323.5" y="272.5" transform="matrix(-1 -1.224647e-16 1.224647e-16 -1 663.928 561.9279)" width="16.9" height="16.9"/>
	</g>
</g>
<g id="PATTERN_SIMPLE" class="st0">
	<rect x="298.2" y="171" class="st2" width="42.2" height="42.2"/>
	<rect x="213.8" y="171" class="st2" width="42.2" height="42.2"/>
	<rect x="171.6" y="213.2" class="st2" width="42.2" height="42.2"/>
	<rect x="256" y="213.2" class="st2" width="42.2" height="42.2"/>
	<rect x="256" y="297.6" class="st2" width="42.2" height="42.2"/>
	<rect x="171.6" y="297.6" class="st2" width="42.2" height="42.2"/>
	<rect x="213.8" y="255.4" class="st2" width="42.2" height="42.2"/>
	<rect x="298.2" y="255.4" class="st2" width="42.2" height="42.2"/>
</g>
<g id="PATTERN_SIMPLE_copy">
	<polygon points="298.2,171 256,171 256,213.2 298.2,213.2 298.2,255.4 340.4,255.4 340.4,213.2 340.4,171 	"/>
</g>
<g id="PATTERN_SIMPLEST_copy" class="st0">
	<rect x="171.9" y="171.1" class="st2" width="84.1" height="42.2"/>
	<rect x="298.2" y="255.5" class="st2" width="42.2" height="85.2"/>
</g>
<g id="PATTERN_SIMPLEST_copy_5" class="st0">
	<rect x="171.9" y="171.1" class="st2" width="168.5" height="42.2"/>
</g>
<g id="PATTERN_SIMPLEST_copy_4" class="st0">
	<polygon class="st2" points="171.9,171.1 171.9,213.3 298.2,213.3 298.2,339.8 340.4,339.8 340.4,213.3 340.4,171.1 	"/>
</g>
<g id="PATTERN_SIMPLEST_copy_2" class="st0">
	<rect x="281.2" y="192.2" class="st2" width="42.2" height="42.2"/>
	<rect x="281.2" y="234.4" class="st2" width="42.2" height="84.3"/>
	<rect x="281.2" y="257.4" class="st2" width="42.2" height="84.3"/>
</g>
<g id="PATTERN_SIMPLEST_copy_3" class="st0">
	<rect x="281.2" y="192.2" class="st2" width="42.2" height="42.2"/>
	<rect x="281.2" y="234.4" class="st2" width="42.2" height="84.3"/>
	<rect x="281.2" y="257.4" class="st2" width="42.2" height="84.3"/>
</g>
<g id="TEMPLATE" class="st0">
</g>
</svg>
