<svg xmlns="http://www.w3.org/2000/svg" viewBox="0 0 407.48 407.48"><title>ar-marker-vd-1</title><g id="BLACK_OUTER_BG" data-name="BLACK OUTER BG"><path d="M359.14,52.26H52.26V459.74H459.74V52.26Zm0,306.88H152.86V152.86H359.14Z" transform="translate(-52.26 -52.26)"/></g><g id="QR_CODE_VD" data-name="QR CODE VD"><g id="elements"><path d="M171.6,255.38H175v3.38H171.6Zm3.37,0h3.38v3.38H175Zm3.38,0h3.38v3.38h-3.38Zm3.38,0h3.38v3.38h-3.38Zm3.38,0h3.37v3.38h-3.37Zm3.37,0h3.38v3.38h-3.38Zm3.38,0h3.38v3.38h-3.38Zm10.14,0h3.37v3.38H202Zm3.37,0h3.38v3.38h-3.38Zm3.38,0h3.38v3.38h-3.38Zm16.89,0H229v3.38h-3.38Zm6.76,0h3.37v3.38H232.4Zm3.37,0h3.38v3.38h-3.38Zm3.38,0h3.38v3.38h-3.38Zm3.38,0h3.38v3.38h-3.38Zm3.38,0h3.37v3.38h-3.37Zm3.37,0h3.38v3.38h-3.38Zm3.38,0H256v3.38h-3.38Zm-81.06,3.38H175v3.38H171.6Zm20.26,0h3.38v3.38h-3.38Zm6.76,0H202v3.38h-3.38Zm16.89,0h3.37v3.38h-3.37Zm6.75,0h3.38v3.38h-3.38Zm10.14,0h3.37v3.38H232.4Zm20.26,0H256v3.38h-3.38Zm-81.06,3.38H175v3.37H171.6Zm6.75,0h3.38v3.37h-3.38Zm3.38,0h3.38v3.37h-3.38Zm3.38,0h3.37v3.37h-3.37Zm6.75,0h3.38v3.37h-3.38Zm10.14,0h3.37v3.37H202Zm10.13,0h3.38v3.37h-3.38Zm6.75,0h3.38v3.37h-3.38Zm6.76,0H229v3.37h-3.38Zm6.76,0h3.37v3.37H232.4Zm6.75,0h3.38v3.37h-3.38Zm3.38,0h3.38v3.37h-3.38Zm3.38,0h3.37v3.37h-3.37Zm6.75,0H256v3.37h-3.38Zm-81.06,3.37H175v3.38H171.6Zm6.75,0h3.38v3.38h-3.38Zm3.38,0h3.38v3.38h-3.38Zm3.38,0h3.37v3.38h-3.37Zm6.75,0h3.38v3.38h-3.38Zm6.76,0H202v3.38h-3.38Zm13.51,0h3.38v3.38h-3.38Zm3.38,0h3.37v3.38h-3.37Zm3.37,0h3.38v3.38h-3.38Zm13.52,0h3.37v3.38H232.4Zm6.75,0h3.38v3.38h-3.38Zm3.38,0h3.38v3.38h-3.38Zm3.38,0h3.37v3.38h-3.37Zm6.75,0H256v3.38h-3.38Zm-81.06,3.38H175v3.38H171.6Zm6.75,0h3.38v3.38h-3.38Zm3.38,0h3.38v3.38h-3.38Zm3.38,0h3.37v3.38h-3.37Zm6.75,0h3.38v3.38h-3.38Zm16.89,0h3.38v3.38h-3.38Zm16.89,0H229v3.38h-3.38Zm6.76,0h3.37v3.38H232.4Zm6.75,0h3.38v3.38h-3.38Zm3.38,0h3.38v3.38h-3.38Zm3.38,0h3.37v3.38h-3.37Zm6.75,0H256v3.38h-3.38Zm-81.06,3.38H175v3.38H171.6Zm20.26,0h3.38v3.38h-3.38Zm6.76,0H202v3.38h-3.38Zm6.75,0h3.38v3.38h-3.38Zm13.51,0h3.38v3.38h-3.38Zm3.38,0h3.38v3.38h-3.38Zm3.38,0H229v3.38h-3.38Zm6.76,0h3.37v3.38H232.4Zm20.26,0H256v3.38h-3.38Zm-81.06,3.38H175V279H171.6Zm3.37,0h3.38V279H175Zm3.38,0h3.38V279h-3.38Zm3.38,0h3.38V279h-3.38Zm3.38,0h3.37V279h-3.37Zm3.37,0h3.38V279h-3.38Zm3.38,0h3.38V279h-3.38Zm6.76,0H202V279h-3.38Zm6.75,0h3.38V279h-3.38Zm6.76,0h3.38V279h-3.38Zm6.75,0h3.38V279h-3.38Zm6.76,0H229V279h-3.38Zm6.76,0h3.37V279H232.4Zm3.37,0h3.38V279h-3.38Zm3.38,0h3.38V279h-3.38Zm3.38,0h3.38V279h-3.38Zm3.38,0h3.37V279h-3.37Zm3.37,0h3.38V279h-3.38Zm3.38,0H256V279h-3.38ZM202,279h3.37v3.38H202Zm3.37,0h3.38v3.38h-3.38Zm3.38,0h3.38v3.38h-3.38Zm10.13,0h3.38v3.38h-3.38Zm3.38,0h3.38v3.38h-3.38ZM171.6,282.4H175v3.38H171.6Zm3.37,0h3.38v3.38H175Zm3.38,0h3.38v3.38h-3.38Zm3.38,0h3.38v3.38h-3.38Zm3.38,0h3.37v3.38h-3.37Zm6.75,0h3.38v3.38h-3.38Zm3.38,0h3.38v3.38h-3.38Zm3.38,0H202v3.38h-3.38Zm3.38,0h3.37v3.38H202Zm6.75,0h3.38v3.38h-3.38Zm3.38,0h3.38v3.38h-3.38Zm3.38,0h3.37v3.38h-3.37Zm3.37,0h3.38v3.38h-3.38Zm3.38,0h3.38v3.38h-3.38Zm6.76,0h3.38v3.38H229Zm6.75,0h3.38v3.38h-3.38Zm6.76,0h3.38v3.38h-3.38Zm6.75,0h3.38v3.38h-3.38ZM175,285.78h3.38v3.38H175Zm3.38,0h3.38v3.38h-3.38Zm3.38,0h3.38v3.38h-3.38Zm3.38,0h3.37v3.38h-3.37Zm10.13,0h3.38v3.38h-3.38Zm13.51,0h3.38v3.38h-3.38Zm3.38,0h3.38v3.38h-3.38Zm6.75,0h3.38v3.38h-3.38Zm6.76,0H229v3.38h-3.38Zm3.38,0h3.38v3.38H229Zm6.75,0h3.38v3.38h-3.38Zm13.51,0h3.38v3.38h-3.38ZM175,289.16h3.38v3.38H175Zm6.76,0h3.38v3.38h-3.38Zm6.75,0h3.38v3.38h-3.38Zm3.38,0h3.38v3.38h-3.38Zm3.38,0h3.38v3.38h-3.38Zm10.13,0h3.38v3.38h-3.38Zm10.14,0h3.37v3.38h-3.37Zm6.75,0h3.38v3.38h-3.38Zm10.14,0h3.37v3.38H232.4Zm3.37,0h3.38v3.38h-3.38Zm6.76,0h3.38v3.38h-3.38Zm6.75,0h3.38v3.38h-3.38Zm3.38,0H256v3.38h-3.38ZM175,292.54h3.38v3.37H175Zm3.38,0h3.38v3.37h-3.38Zm3.38,0h3.38v3.37h-3.38Zm13.51,0h3.38v3.37h-3.38Zm3.38,0H202v3.37h-3.38Zm23.64,0h3.38v3.37h-3.38Zm3.38,0H229v3.37h-3.38Zm13.51,0h3.38v3.37h-3.38Zm13.51,0H256v3.37h-3.38Zm-70.93,3.37h3.38v3.38h-3.38Zm6.75,0h3.38v3.38h-3.38Zm3.38,0h3.38v3.38h-3.38Zm3.38,0h3.38v3.38h-3.38Zm3.38,0H202v3.38h-3.38Zm3.38,0h3.37v3.38H202Zm3.37,0h3.38v3.38h-3.38Zm6.76,0h3.38v3.38h-3.38Zm3.38,0h3.37v3.38h-3.37Zm6.75,0h3.38v3.38h-3.38Zm6.76,0h3.38v3.38H229Zm3.38,0h3.37v3.38H232.4Zm6.75,0h3.38v3.38h-3.38Zm6.76,0h3.37v3.38h-3.37Zm3.37,0h3.38v3.38h-3.38Zm3.38,0H256v3.38h-3.38Zm-81.06,3.38H175v3.38H171.6Zm3.37,0h3.38v3.38H175Zm3.38,0h3.38v3.38h-3.38Zm6.76,0h3.37v3.38h-3.37Zm16.89,0h3.37v3.38H202Zm6.75,0h3.38v3.38h-3.38Zm6.76,0h3.37v3.38h-3.37Zm10.13,0H229v3.38h-3.38Zm3.38,0h3.38v3.38H229Zm6.75,0h3.38v3.38h-3.38Zm6.76,0h3.38v3.38h-3.38Zm6.75,0h3.38v3.38h-3.38Zm-77.68,3.38H175v3.38H171.6Zm6.75,0h3.38v3.38h-3.38Zm6.76,0h3.37v3.38h-3.37Zm3.37,0h3.38v3.38h-3.38Zm3.38,0h3.38v3.38h-3.38Zm3.38,0h3.38v3.38h-3.38Zm6.76,0h3.37v3.38H202Zm3.37,0h3.38v3.38h-3.38Zm6.76,0h3.38v3.38h-3.38Zm3.38,0h3.37v3.38h-3.37Zm3.37,0h3.38v3.38h-3.38Zm3.38,0h3.38v3.38h-3.38Zm6.76,0h3.38v3.38H229Zm3.38,0h3.37v3.38H232.4Zm6.75,0h3.38v3.38h-3.38Zm3.38,0h3.38v3.38h-3.38Zm6.75,0h3.38v3.38h-3.38Zm3.38,0H256v3.38h-3.38Zm-81.06,3.38H175v3.37H171.6Zm13.51,0h3.37v3.37h-3.37Zm16.89,0h3.37v3.37H202Zm6.75,0h3.38v3.37h-3.38Zm13.51,0h3.38v3.37h-3.38Zm3.38,0H229v3.37h-3.38Zm6.76,0h3.37v3.37H232.4Zm3.37,0h3.38v3.37h-3.38Zm6.76,0h3.38v3.37h-3.38Zm10.13,0H256v3.37h-3.38Zm-81.06,3.37H175v3.38H171.6Zm16.88,0h3.38v3.38h-3.38Zm3.38,0h3.38v3.38h-3.38Zm3.38,0h3.38v3.38h-3.38Zm6.76,0h3.37v3.38H202Zm6.75,0h3.38v3.38h-3.38Zm3.38,0h3.38v3.38h-3.38Zm3.38,0h3.37v3.38h-3.37Zm3.37,0h3.38v3.38h-3.38Zm6.76,0H229v3.38h-3.38Zm3.38,0h3.38v3.38H229Zm3.38,0h3.37v3.38H232.4Zm3.37,0h3.38v3.38h-3.38Zm3.38,0h3.38v3.38h-3.38Zm6.76,0h3.37v3.38h-3.37Zm-47.29,3.38H202v3.38h-3.38Zm3.38,0h3.37v3.38H202Zm3.37,0h3.38v3.38h-3.38Zm3.38,0h3.38v3.38h-3.38Zm6.76,0h3.37v3.38h-3.37Zm6.75,0h3.38v3.38h-3.38Zm3.38,0H229v3.38h-3.38Zm13.51,0h3.38v3.38h-3.38Zm3.38,0h3.38v3.38h-3.38Zm3.38,0h3.37v3.38h-3.37Zm-74.31,3.38H175v3.38H171.6Zm3.37,0h3.38v3.38H175Zm3.38,0h3.38v3.38h-3.38Zm3.38,0h3.38v3.38h-3.38Zm3.38,0h3.37v3.38h-3.37Zm3.37,0h3.38v3.38h-3.38Zm3.38,0h3.38v3.38h-3.38Zm6.76,0H202v3.38h-3.38Zm6.75,0h3.38v3.38h-3.38Zm10.14,0h3.37v3.38h-3.37Zm3.37,0h3.38v3.38h-3.38Zm6.76,0H229v3.38h-3.38Zm6.76,0h3.37v3.38H232.4Zm6.75,0h3.38v3.38h-3.38Zm3.38,0h3.38v3.38h-3.38Zm3.38,0h3.37v3.38h-3.37Zm3.37,0h3.38v3.38h-3.38Zm3.38,0H256v3.38h-3.38Zm-81.06,3.38H175v3.38H171.6Zm20.26,0h3.38v3.38h-3.38Zm13.51,0h3.38v3.38h-3.38Zm6.76,0h3.38v3.38h-3.38Zm6.75,0h3.38v3.38h-3.38Zm6.76,0H229v3.38h-3.38Zm13.51,0h3.38v3.38h-3.38Zm3.38,0h3.38v3.38h-3.38Zm6.75,0h3.38v3.38h-3.38Zm-77.68,3.38H175v3.37H171.6Zm6.75,0h3.38v3.37h-3.38Zm3.38,0h3.38v3.37h-3.38Zm3.38,0h3.37v3.37h-3.37Zm6.75,0h3.38v3.37h-3.38Zm6.76,0H202v3.37h-3.38Zm6.75,0h3.38v3.37h-3.38Zm3.38,0h3.38v3.37h-3.38Zm3.38,0h3.38v3.37h-3.38Zm3.38,0h3.37v3.37h-3.37Zm3.37,0h3.38v3.37h-3.38Zm3.38,0h3.38v3.37h-3.38Zm3.38,0H229v3.37h-3.38Zm3.38,0h3.38v3.37H229Zm3.38,0h3.37v3.37H232.4Zm3.37,0h3.38v3.37h-3.38Zm3.38,0h3.38v3.37h-3.38Zm3.38,0h3.38v3.37h-3.38Zm3.38,0h3.37v3.37h-3.37Zm3.37,0h3.38v3.37h-3.38Zm-77.68,3.37H175v3.38H171.6Zm6.75,0h3.38v3.38h-3.38Zm3.38,0h3.38v3.38h-3.38Zm3.38,0h3.37v3.38h-3.37Zm6.75,0h3.38v3.38h-3.38Zm6.76,0H202v3.38h-3.38Zm3.38,0h3.37v3.38H202Zm6.75,0h3.38v3.38h-3.38Zm6.76,0h3.37v3.38h-3.37Zm13.51,0h3.38v3.38H229Zm3.38,0h3.37v3.38H232.4Zm3.37,0h3.38v3.38h-3.38Zm3.38,0h3.38v3.38h-3.38Zm6.76,0h3.37v3.38h-3.37Zm3.37,0h3.38v3.38h-3.38Zm3.38,0H256v3.38h-3.38Zm-81.06,3.38H175v3.38H171.6Zm6.75,0h3.38v3.38h-3.38Zm3.38,0h3.38v3.38h-3.38Zm3.38,0h3.37v3.38h-3.37Zm6.75,0h3.38v3.38h-3.38Zm6.76,0H202v3.38h-3.38Zm3.38,0h3.37v3.38H202Zm3.37,0h3.38v3.38h-3.38Zm6.76,0h3.38v3.38h-3.38Zm3.38,0h3.37v3.38h-3.37Zm3.37,0h3.38v3.38h-3.38Zm3.38,0h3.38v3.38h-3.38Zm6.76,0h3.38v3.38H229Zm6.75,0h3.38v3.38h-3.38Zm10.14,0h3.37v3.38h-3.37Zm6.75,0H256v3.38h-3.38Zm-81.06,3.38H175v3.38H171.6Zm20.26,0h3.38v3.38h-3.38Zm6.76,0H202v3.38h-3.38Zm23.64,0h3.38v3.38h-3.38Zm3.38,0H229v3.38h-3.38Zm3.38,0h3.38v3.38H229Zm3.38,0h3.37v3.38H232.4Zm3.37,0h3.38v3.38h-3.38Zm3.38,0h3.38v3.38h-3.38Zm3.38,0h3.38v3.38h-3.38Zm10.13,0H256v3.38h-3.38Zm-81.06,3.38H175v3.37H171.6Zm3.37,0h3.38v3.37H175Zm3.38,0h3.38v3.37h-3.38Zm3.38,0h3.38v3.37h-3.38Zm3.38,0h3.37v3.37h-3.37Zm3.37,0h3.38v3.37h-3.38Zm3.38,0h3.38v3.37h-3.38Zm6.76,0H202v3.37h-3.38Zm3.38,0h3.37v3.37H202Zm6.75,0h3.38v3.37h-3.38Zm3.38,0h3.38v3.37h-3.38Zm3.38,0h3.37v3.37h-3.37Zm3.37,0h3.38v3.37h-3.38Zm10.14,0h3.38v3.37H229Zm3.38,0h3.37v3.37H232.4Zm3.37,0h3.38v3.37h-3.38Zm3.38,0h3.38v3.37h-3.38Zm3.38,0h3.38v3.37h-3.38Zm3.38,0h3.37v3.37h-3.37Zm3.37,0h3.38v3.37h-3.38Zm3.38,0H256v3.37h-3.38Z" transform="translate(-52.26 -52.26)"/></g></g><g id="PATTERN_SIMPLEST_copy_5" data-name="PATTERN SIMPLEST copy 5"><rect x="119.63" y="118.88" width="168.52" height="42.17"/></g></svg>